<?xml version="1.0"?><svg width="640" height="480" xmlns="http://www.w3.org/2000/svg" xmlns:xlink="http://www.w3.org/1999/xlink">
 <title>blue car</title>
 <defs>
  <linearGradient id="linearGradient6250">
   <stop offset="0" stop-color="#bcbcbc" id="stop6252"/>
   <stop offset="1" stop-opacity="0" stop-color="#bcbcbc" id="stop6254"/>
  </linearGradient>
  <linearGradient id="linearGradient5247">
   <stop offset="0" stop-color="#ffffff" id="stop5249"/>
   <stop offset="1" stop-opacity="0" stop-color="#ffffff" id="stop5251"/>
  </linearGradient>
  <linearGradient id="linearGradient5234">
   <stop offset="0" stop-color="#000000" id="stop5236"/>
   <stop offset="0.813187" stop-color="#3c3c3c" id="stop5242"/>
   <stop offset="1" stop-color="#000000" id="stop5238"/>
  </linearGradient>
  <linearGradient id="linearGradient28588">
   <stop offset="0" stop-color="#ffffff" id="stop28590"/>
   <stop offset="1" stop-opacity="0" stop-color="#ffffff" id="stop28592"/>
  </linearGradient>
  <linearGradient id="linearGradient16120">
   <stop offset="0" stop-color="#ffffff" id="stop16122"/>
   <stop offset="1" stop-opacity="0" stop-color="#ffffff" id="stop16124"/>
  </linearGradient>
  <linearGradient id="linearGradient14136">
   <stop offset="0" stop-color="#9eecff" id="stop14138"/>
   <stop offset="1" stop-color="#87efff" id="stop14140"/>
  </linearGradient>
  <linearGradient xlink:href="#linearGradient16120" y2="0.616764" x2="0.463904" y1="-0.184549" x1="0.291418" id="linearGradient24490"/>
  <linearGradient xlink:href="#linearGradient14136" y2="0.004058" x2="0.521815" y1="1.13791" x1="0.524837" id="linearGradient24498"/>
  <linearGradient xlink:href="#linearGradient28588" y2="1.21684" x2="0.542015" y1="0.441801" x1="0.533791" id="linearGradient3252"/>
  <radialGradient xlink:href="#linearGradient5234" fy="532.029" fx="173.108" r="61.0672" cy="532.029" cx="173.108" gradientTransform="matrix(0.9205549955368042,0,0,0.9208530187606812,-0.8792610168457031,-42.496299743652344)" gradientUnits="userSpaceOnUse" id="radialGradient8290"/>
  <linearGradient xlink:href="#linearGradient5247" y2="1" x2="0.290069" y1="-0.636205" x1="0.210002" id="linearGradient8292"/>
  <linearGradient xlink:href="#linearGradient6250" y2="0.300001" x2="0.319436" y1="1.03016" x1="0.839654" id="linearGradient8294"/>
  <linearGradient xlink:href="#linearGradient6250" y2="0.300001" x2="0.319436" y1="1.03016" x1="0.839654" id="linearGradient8304"/>
  <linearGradient xlink:href="#linearGradient6250" y2="0.300001" x2="0.319436" y1="1.03016" x1="0.839654" id="linearGradient8306"/>
  <radialGradient xlink:href="#linearGradient16120" fy="532.736" fx="177.85" r="8.09025" cy="532.736" cx="177.85" gradientTransform="matrix(0.9205549955368042,0,0,0.9208530187606812,-0.8792610168457031,-42.496299743652344)" gradientUnits="userSpaceOnUse" id="radialGradient8308"/>
  <radialGradient gradientTransform="matrix(0.9205549955368042,0,0,0.9208530187606812,373.65301513671875,-43.688899993896484)" xlink:href="#linearGradient5234" fy="532.029" fx="173.108" r="61.0672" cy="532.029" cx="173.108" gradientUnits="userSpaceOnUse" id="radialGradient8338"/>
  <linearGradient xlink:href="#linearGradient5247" y2="1" x2="0.290069" y1="-0.636205" x1="0.210002" id="linearGradient8340"/>
  <linearGradient xlink:href="#linearGradient6250" y2="0.300001" x2="0.319436" y1="1.03016" x1="0.839654" id="linearGradient8342"/>
  <linearGradient xlink:href="#linearGradient6250" y2="0.300001" x2="0.319436" y1="1.03016" x1="0.839654" id="linearGradient8352"/>
  <linearGradient xlink:href="#linearGradient6250" y2="0.300001" x2="0.319436" y1="1.03016" x1="0.839654" id="linearGradient8354"/>
  <radialGradient gradientTransform="matrix(0.9205549955368042,0,0,0.9208530187606812,373.65301513671875,-43.688899993896484)" xlink:href="#linearGradient16120" fy="532.736" fx="177.85" r="8.09025" cy="532.736" cx="177.85" gradientUnits="userSpaceOnUse" id="radialGradient8356"/>
  <linearGradient xlink:href="#linearGradient6250" y2="0.699999" x2="0.680564" y1="-0.030163" x1="0.160346" id="svg_1"/>
  <linearGradient xlink:href="#linearGradient6250" y2="0.699999" x2="0.680564" y1="-0.030163" x1="0.160346" id="svg_2"/>
  <linearGradient xlink:href="#linearGradient6250" y2="0.699999" x2="0.680564" y1="-0.030163" x1="0.160346" id="svg_3"/>
  <linearGradient xlink:href="#linearGradient6250" y2="0.699999" x2="0.680564" y1="-0.030163" x1="0.160346" id="svg_4"/>
  <linearGradient xlink:href="#linearGradient6250" y2="0.699999" x2="0.680564" y1="-0.030163" x1="0.160346" id="svg_5"/>
  <linearGradient xlink:href="#linearGradient6250" y2="0.699999" x2="0.680564" y1="-0.030163" x1="0.160346" id="svg_6"/>
  <linearGradient xlink:href="#linearGradient6250" y2="0.699999" x2="0.680564" y1="-0.030163" x1="0.160346" id="svg_7"/>
  <linearGradient xlink:href="#linearGradient6250" y2="0.699999" x2="0.680564" y1="-0.030163" x1="0.160346" id="svg_8"/>
 </defs>
 <metadata id="metadata7">image/svg+xml</metadata>
 <g>
  <title>Layer 1</title>
  <path d="m430.350006,220.632996l114.090973,-7.106003l3.559998,-8.812988l-13.953979,-34.550003l-104.687012,-5.552002c0.330017,18.673004 0.660004,-21.843002 0.990021,56.020996z" stroke-width="1.00016px" stroke="#000000" fill-rule="evenodd" fill="#000000" id="path8312"/>
  <path d="m263.395996,28.5364c-87.347992,0.262899 -141.953995,54.181297 -185.011993,88.678596c9.409401,-3.654999 19.6576,-5.650993 30.375999,-5.650993c45.853996,0 83.07,36.736992 83.07,82.015999c0,9.891998 -1.778,19.378998 -5.033005,28.162994l215.733002,-0.544998c-3.604004,-9.18399 -5.587006,-19.175003 -5.587006,-29.610992c0,-45.278 37.216003,-82.016006 83.070007,-82.016006c16.229004,0 31.373993,4.609001 44.171021,12.564003c-5.069031,-4.402 -9.976013,-8.167 -14.139008,-10.570999c-17.253021,-9.963005 -54.926025,-12.086601 -63.89801,-13.949501c-8.875,-1.842903 -11.554993,-2.301903 -14.050018,-4.654999c-9.258972,-8.735306 -80.39798,-73.322603 -168.700989,-64.423103z" stroke-width="1px" fill-rule="evenodd" fill="#0000ff" id="path4342"/>
  <path d="m191.223999,206.009995l208.919006,-0.561996l3.247986,16.313995l-221.908997,0l9.742004,-15.751999z" stroke-width="1px" stroke-miterlimit="4" stroke-dashoffset="0" marker-start="none" marker-mid="none" marker-end="none" fill-rule="evenodd" fill="#0000ff" id="path12136"/>
  <path d="m499.476013,118.727997c20.916016,18.653 39.154968,38.854004 54.252014,60.374008c6.336975,-8.031006 7.105957,-24.868011 4.584961,-29.057007c-10.588989,-17.595001 -32.84198,-28.800995 -58.836975,-31.317001z" stroke-width="1.90917px" fill-rule="evenodd" fill="#ff007f" opacity="0.992308" id="path2371"/>
  <path d="m200.772003,43.198502c-0.348999,0.119297 -0.699005,0.238697 -1.048004,0.358097c-34.772003,11.973103 -65.600006,33.5275 -93.974998,57.214405c-0.384003,0.613998 -3.837997,3.421997 -5.886101,5.262993c-2.335999,1.266006 -5.101898,2.956001 -8.432701,5.215004c34.038803,3.422997 73.327797,27.014 83.219795,53.603004c3.723007,9.653992 5.228012,19.854996 4.89801,30.000992c80.973999,-0.056992 161.863983,-3.791992 242.813995,-4.935989c3.289001,-23.313004 19.505005,-43.67601 38.239014,-60.562012c5.870972,-5.587997 12.964996,-10.399994 18.123993,-16.408997c1.213989,-1.825996 0.173981,-4.139 -0.989014,-5.496002c0.906006,-0.090996 -0.083984,0.263 -7.716003,-1.376999c-19.583984,-3.952995 -41.049988,-1.396996 -51.917999,-19.8955c-0.876984,-1.4944 11.371002,18.650505 9.680023,18.628502c-65.672028,-0.848 -127.612,-2.056 -184.372009,-2.491997c-0.28801,-0.002007 -1.17601,-50.407104 -1.709,-63.071201c-1.768997,-0.080402 -11.964005,1.517498 -13.145004,1.7188c-0.143997,1.193298 -2.406006,60.8274 -3.259995,60.790398c-33.393005,-1.418999 -66.812012,-0.652 -103.385002,-0.653999c1.343994,-1.057999 2.519997,-2.328903 3.459999,-3.876396c9.651001,-15.878304 46.011993,-40.628502 75.401001,-54.023102z" stroke-width="1px" fill-rule="evenodd" fill="#0000ff" opacity="0.6" id="path16188"/>
  <path d="m46.503799,205.897003l121.002197,14.845001l6.278,-15.416l-14.268997,-35.970001l-103.3083,-5.138l-9.7029,41.679001z" stroke-width="1.00016px" stroke="#000000" fill-rule="evenodd" fill="#000000" id="path8310"/>
  <g id="g8277">
   <path d="m166.812714,199.989243c0,31.056702 -25.168884,56.233749 -56.215523,56.233749c-31.047195,0 -56.215809,-25.177048 -56.215809,-56.233749c0,-31.057587 25.168613,-56.233719 56.215809,-56.233719c31.046638,0 56.215523,25.176132 56.215523,56.233719z" stroke-width="11.4" stroke-miterlimit="4" stroke-dashoffset="0" marker-start="none" marker-mid="none" marker-end="none" fill-rule="evenodd" fill="url(#radialGradient8290)" id="path3292"/>
   <path d="m150.392776,198.768204c0,21.816849 -17.680176,39.502762 -39.490883,39.502762c-21.809517,0 -39.489975,-17.685913 -39.489975,-39.502762c0,-21.816849 17.680458,-39.503677 39.489975,-39.503677c21.810707,0 39.490883,17.686829 39.490883,39.503677z" stroke-width="11.4" stroke-miterlimit="4" stroke-dashoffset="0" marker-start="none" marker-mid="none" marker-end="none" fill-rule="evenodd" fill="#999999" id="path3294"/>
   <path d="m148.866501,198.705597c-32.950348,-37.9189 -42.399841,9.548309 -75.928757,0c0,-20.963226 17.00808,-37.976913 37.964149,-37.976913c20.956429,0 37.964607,17.013687 37.964607,37.976913z" stroke-width="11.4" stroke-miterlimit="4" stroke-dashoffset="0" marker-start="none" marker-mid="none" marker-end="none" fill-rule="evenodd" fill="url(#linearGradient8292)" id="path5244"/>
   <path d="m93.571518,187.638779c-2.540543,1.981674 -6.619064,0.998199 -9.109444,-2.196243c-2.490372,-3.195358 -2.449593,-7.391678 0.091042,-9.373367c2.540649,-1.981659 6.619164,-0.998199 9.109535,2.197159c2.490105,3.194458 2.4496,7.390778 -0.091133,9.372452z" stroke-width="2.32136" stroke-miterlimit="4" stroke-dashoffset="0" stroke="url(#linearGradient8294)" marker-start="none" marker-mid="none" marker-end="none" fill-rule="evenodd" fill="#080808" id="path6262"/>
   <path d="m108.633644,178.585861c-3.127121,-0.775345 -4.872498,-4.591354 -3.898552,-8.524338c0.973953,-3.932022 4.298073,-6.492004 7.425194,-5.716644c3.127129,0.774445 4.872498,4.590454 3.898552,8.523407c-0.973946,3.932053 -4.298073,6.49202 -7.425194,5.717575z" stroke-width="2.32136" stroke-miterlimit="4" stroke-dashoffset="0" stroke="url(#svg_8)" marker-start="none" marker-mid="none" marker-end="none" fill-rule="evenodd" fill="#080808" id="path6266"/>
   <path d="m125.207321,185.036453c-1.309029,-2.943985 0.629646,-6.666061 4.330276,-8.312561c3.700638,-1.646469 7.762131,-0.593933 9.071152,2.350952c1.309036,2.943954 -0.629654,6.666046 -4.330276,8.312531c-3.700638,1.6465 -7.762131,0.593964 -9.071152,-2.350922z" stroke-width="2.32136" stroke-miterlimit="4" stroke-dashoffset="0" stroke="url(#svg_7)" marker-start="none" marker-mid="none" marker-end="none" fill-rule="evenodd" fill="#080808" id="path6270"/>
   <path d="m130.36702,200.797775c1.354156,-2.923721 5.43129,-3.914551 9.10614,-2.211899c3.67485,1.702667 5.556473,5.453293 4.203262,8.377914c-1.354156,2.924622 -5.43129,3.914551 -9.10614,2.211899c-3.67485,-1.702652 -5.556473,-5.453293 -4.203262,-8.377914z" stroke-width="2.32136" stroke-miterlimit="4" stroke-dashoffset="0" stroke="url(#svg_6)" marker-start="none" marker-mid="none" marker-end="none" fill-rule="evenodd" fill="#080808" id="path6274"/>
   <path d="m121.32534,215.461426c3.120682,-0.800217 6.465965,1.732132 7.47123,5.656799c1.006165,3.924667 -0.708832,7.755432 -3.829521,8.554733c-3.120682,0.800217 -6.465981,-1.732132 -7.471222,-5.656799c-1.006165,-3.924667 0.708817,-7.754501 3.829514,-8.554733z" stroke-width="2.32136" stroke-miterlimit="4" stroke-dashoffset="0" stroke="url(#svg_5)" marker-start="none" marker-mid="none" marker-end="none" fill-rule="evenodd" fill="#080808" id="path6278"/>
   <path d="m103.137932,217.343658c2.46064,2.0802 2.336365,6.275604 -0.278931,9.369659c-2.61438,3.094086 -6.728333,3.916412 -9.18898,1.836197c-2.46064,-2.0802 -2.335449,-6.275604 0.278931,-9.36969c2.614372,-3.094055 6.728333,-3.916382 9.18898,-1.836166z" stroke-width="2.32136" stroke-miterlimit="4" stroke-dashoffset="0" stroke="url(#linearGradient8304)" marker-start="none" marker-mid="none" marker-end="none" fill-rule="evenodd" fill="#080808" id="path6282"/>
   <path d="m91.173752,204.41394c-0.12326,3.22023 -3.503998,5.705612 -7.551216,5.550919c-4.047127,-0.155624 -7.228111,-2.891495 -7.104843,-6.111694c0.123253,-3.22023 3.503998,-5.705627 7.551216,-5.550919c4.047127,0.155624 7.227921,2.891495 7.104843,6.111694z" stroke-width="2.32136" stroke-miterlimit="4" stroke-dashoffset="0" stroke="url(#linearGradient8306)" marker-start="none" marker-mid="none" marker-end="none" fill-rule="evenodd" fill="#080808" id="path6288"/>
   <path d="m118.073929,198.768204c0,3.961517 -3.210884,7.173462 -7.172035,7.173462c-3.960228,0 -7.171127,-3.211945 -7.171127,-7.173462c0,-3.962433 3.210899,-7.173447 7.171127,-7.173447c3.961151,0 7.172035,3.211014 7.172035,7.173447z" stroke-width="0.6" stroke-miterlimit="4" stroke-dashoffset="0" stroke="#bcbcbc" marker-start="none" marker-mid="none" marker-end="none" fill-rule="evenodd" fill="url(#radialGradient8308)" opacity="0.376569" id="path6329"/>
  </g>
  <path d="m109.232002,110.987c-45.854202,0 -81.792002,36.753006 -81.792002,82.031006c0.4867,12.076996 12.984499,11.709 22.886599,15.396988c3.868603,-42.182999 27.492302,-61.190994 63.335403,-60.870987c36.697998,0.319992 63.466995,38.269989 53.862991,74.215988l19.129013,-0.034988c3.591995,-9.171005 5.632996,-18.289001 5.632996,-28.707001c0,-45.278 -37.201004,-82.031006 -83.055,-82.031006l0,0z" stroke-width="2.9" stroke-miterlimit="4" stroke-dashoffset="0" marker-start="none" marker-mid="none" marker-end="none" fill-rule="nonzero" fill="#0000ff" id="path2378"/>
  <g id="g8314">
   <path d="m541.344971,200.796646c0,31.056702 -25.168884,56.233749 -56.215515,56.233749c-31.04718,0 -56.21579,-25.177048 -56.21579,-56.233749c0,-31.057602 25.16861,-56.233719 56.21579,-56.233719c31.046631,0 56.215515,25.176117 56.215515,56.233719z" stroke-width="11.4" stroke-miterlimit="4" stroke-dashoffset="0" marker-start="none" marker-mid="none" marker-end="none" fill-rule="evenodd" fill="url(#radialGradient8338)" id="path8316"/>
   <path d="m524.925049,199.575607c0,21.816833 -17.680176,39.502762 -39.490875,39.502762c-21.809509,0 -39.48999,-17.685928 -39.48999,-39.502762c0,-21.816849 17.680481,-39.503677 39.48999,-39.503677c21.810699,0 39.490875,17.686829 39.490875,39.503677z" stroke-width="11.4" stroke-miterlimit="4" stroke-dashoffset="0" marker-start="none" marker-mid="none" marker-end="none" fill-rule="evenodd" fill="#999999" id="path8318"/>
   <path d="m523.398804,199.513c-32.950378,-37.9189 -42.399872,9.548309 -75.928772,0c0,-20.963242 17.008057,-37.976913 37.964142,-37.976913c20.956421,0 37.96463,17.013672 37.96463,37.976913z" stroke-width="11.4" stroke-miterlimit="4" stroke-dashoffset="0" marker-start="none" marker-mid="none" marker-end="none" fill-rule="evenodd" fill="url(#linearGradient8340)" id="path8320"/>
   <path d="m468.10379,188.446182c-2.540527,1.981674 -6.619049,0.998199 -9.109436,-2.196243c-2.490387,-3.195358 -2.449585,-7.391678 0.091034,-9.373367c2.540649,-1.981674 6.619171,-0.998199 9.109528,2.197159c2.490112,3.194443 2.449615,7.390762 -0.091125,9.372452z" stroke-width="2.32136" stroke-miterlimit="4" stroke-dashoffset="0" stroke="url(#linearGradient8342)" marker-start="none" marker-mid="none" marker-end="none" fill-rule="evenodd" fill="#080808" id="path8322"/>
   <path d="m483.165924,179.393265c-3.127136,-0.77536 -4.872498,-4.59137 -3.89856,-8.524338c0.973969,-3.932037 4.298065,-6.492004 7.425201,-5.716644c3.127136,0.774429 4.872498,4.590454 3.89856,8.523407c-0.973969,3.932053 -4.298096,6.49202 -7.425201,5.717575z" stroke-width="2.32136" stroke-miterlimit="4" stroke-dashoffset="0" stroke="url(#svg_4)" marker-start="none" marker-mid="none" marker-end="none" fill-rule="evenodd" fill="#080808" id="path8324"/>
   <path d="m499.739594,185.843842c-1.309021,-2.94397 0.629639,-6.666046 4.330292,-8.312546c3.700623,-1.646484 7.762115,-0.593933 9.071167,2.350952c1.309021,2.943954 -0.6297,6.666046 -4.330292,8.312531c-3.700653,1.6465 -7.762146,0.593948 -9.071167,-2.350937z" stroke-width="2.32136" stroke-miterlimit="4" stroke-dashoffset="0" stroke="url(#svg_3)" marker-start="none" marker-mid="none" marker-end="none" fill-rule="evenodd" fill="#080808" id="path8326"/>
   <path d="m504.899292,201.605179c1.354156,-2.923721 5.431305,-3.914551 9.10614,-2.211899c3.674866,1.702652 5.556458,5.453293 4.203247,8.377914c-1.354126,2.924622 -5.431274,3.914551 -9.10611,2.211899c-3.674866,-1.702652 -5.556488,-5.453293 -4.203278,-8.377914z" stroke-width="2.32136" stroke-miterlimit="4" stroke-dashoffset="0" stroke="url(#svg_2)" marker-start="none" marker-mid="none" marker-end="none" fill-rule="evenodd" fill="#080808" id="path8328"/>
   <path d="m495.857605,216.268829c3.120697,-0.800217 6.465973,1.732132 7.471222,5.656799c1.006195,3.924667 -0.708832,7.755417 -3.829498,8.554733c-3.120697,0.800217 -6.465973,-1.732132 -7.471222,-5.656799c-1.006165,-3.924683 0.708801,-7.754501 3.829498,-8.554733z" stroke-width="2.32136" stroke-miterlimit="4" stroke-dashoffset="0" stroke="url(#svg_1)" marker-start="none" marker-mid="none" marker-end="none" fill-rule="evenodd" fill="#080808" id="path8330"/>
   <path d="m477.670197,218.151047c2.460663,2.080215 2.336365,6.27562 -0.278931,9.369675c-2.61438,3.094086 -6.728333,3.916412 -9.188965,1.836197c-2.460632,-2.080215 -2.335449,-6.27562 0.278931,-9.36969c2.61438,-3.094055 6.728333,-3.916382 9.188965,-1.836182z" stroke-width="2.32136" stroke-miterlimit="4" stroke-dashoffset="0" stroke="url(#linearGradient8352)" marker-start="none" marker-mid="none" marker-end="none" fill-rule="evenodd" fill="#080808" id="path8332"/>
   <path d="m465.706024,205.221344c-0.12326,3.22023 -3.503998,5.705612 -7.551208,5.550919c-4.047119,-0.15564 -7.228119,-2.891495 -7.104858,-6.111694c0.12326,-3.220245 3.503998,-5.705627 7.551239,-5.550919c4.047119,0.155624 7.227905,2.891495 7.104828,6.111694z" stroke-width="2.32136" stroke-miterlimit="4" stroke-dashoffset="0" stroke="url(#linearGradient8354)" marker-start="none" marker-mid="none" marker-end="none" fill-rule="evenodd" fill="#080808" id="path8334"/>
   <path d="m492.606201,199.575607c0,3.961517 -3.210876,7.173447 -7.172028,7.173447c-3.960236,0 -7.171143,-3.211929 -7.171143,-7.173447c0,-3.962433 3.210907,-7.173447 7.171143,-7.173447c3.961151,0 7.172028,3.211014 7.172028,7.173447z" stroke-width="0.6" stroke-miterlimit="4" stroke-dashoffset="0" stroke="#bcbcbc" marker-start="none" marker-mid="none" marker-end="none" fill-rule="evenodd" fill="url(#radialGradient8356)" opacity="0.376569" id="path8336"/>
  </g>
  <path d="m478.908997,107.942001c45.854004,0 55.593018,23.272995 79.875,54.567993c6.369019,8.209 -10.083008,41.453003 -13.674988,50.812012l-3.953003,-0.693008c2.166992,-41.412003 -19.437988,-65.132996 -56.283997,-66.537994c-27.542999,0.106003 -61.494019,20.968002 -54.080017,75.210999l-29.380981,0.509003c-3.59201,-9.359009 -5.557007,-19.524002 -5.557007,-30.156006c0,-46.205994 37.200989,-83.712997 83.054993,-83.712997z" stroke-width="2.9" stroke-miterlimit="4" stroke-dashoffset="0" marker-start="none" marker-mid="none" marker-end="none" fill-rule="nonzero" fill="#0000ff" id="path3357"/>
  <path d="m243.231003,39.527901l2.636002,62.477097l176.893982,2.055c-48.140991,-50.344299 -111.826996,-74.313198 -179.529984,-64.532097zm-16.462006,3.316101c-64.867004,15.907997 -96.669998,57.821999 -96.669998,57.821999l94.139008,1.089996l2.530991,-58.911995z" stroke-width="1.02619" stroke-miterlimit="4" stroke="#087900" fill-rule="evenodd" fill="url(#linearGradient24498)" id="path4328"/>
  <path d="m273.108002,43.073799c-7.942017,0.0415 -15.881989,0.542301 -23.766006,1.504501c0.645004,17.150398 1.346008,34.298798 2.106003,51.444496c53.14801,0.610001 106.296997,1.178505 159.446014,1.763901c-37.387024,-34.150597 -86.97702,-55.418598 -137.786011,-54.712898zm-51.522003,7.124401c-29.289993,8.2005 -56.802994,23.3232 -78.748001,44.614201c26.147995,0.145096 52.292007,0.6707 78.438995,0.760796c0.493011,-15.260696 1.545013,-30.501495 1.730011,-45.772697c-0.473999,0.132603 -0.947998,0.265202 -1.421005,0.397701z" stroke-width="2.1" stroke-miterlimit="4" fill-rule="evenodd" fill="url(#linearGradient3252)" opacity="0.958159" id="path16269"/>
  <path d="m235.498001,39.012501c-1.076996,0 -2.733002,103.658504 0,167.343502" stroke-width="1.36822" stroke-miterlimit="4" stroke="#076c00" fill-rule="evenodd" fill="#7f0000" id="path4336"/>
  <path d="m108.485001,115.357002c-24.948898,-2.737999 -64.1688,15.236 -72.432701,55.443993c39.707703,-71.289291 101.347694,-40.653992 103.164696,-43.954994c-9.145996,-6.445 -19.783997,-10.347 -30.731995,-11.488998z" stroke-width="2.9" stroke-miterlimit="4" stroke-dashoffset="0" marker-start="none" marker-mid="none" marker-end="none" fill-rule="nonzero" fill="url(#linearGradient24490)" opacity="0.969231" id="path15113"/>
  <path d="m479.100006,112.806c-24.950012,-2.737999 -64.170013,15.236008 -72.433014,55.444c39.707001,-71.289497 101.348022,-40.653999 103.164001,-43.956001c-9.145996,-6.444 -19.783997,-10.346001 -30.730988,-11.487999z" stroke-width="2.9" stroke-miterlimit="4" stroke-dashoffset="0" marker-start="none" marker-mid="none" marker-end="none" fill-rule="nonzero" fill="#0000ff" opacity="0.969231" id="path16128"/>
  <path d="m396.890015,206.222c-38.053009,1.195999 -76.146027,0.345001 -114.216003,0.761002c-30.111008,0.125 -60.528015,-0.186996 -90.451004,0.645996c-4.772003,4.315002 -0.09201,3.794006 4.47699,3.488007c67.241989,-0.363998 134.483994,-0.018997 201.724991,-0.143005c-0.573975,-1.134003 0.348022,-4.783997 -1.534973,-4.751999z" stroke-width="1px" stroke-miterlimit="4" stroke-dashoffset="0" marker-start="none" marker-mid="none" marker-end="none" fill-rule="evenodd" fill="#ffffff" opacity="0.154812" id="path8360"/>
 </g>
</svg>